<svg width="35" height="35" viewBox="0 0 35 35" fill="none" xmlns="http://www.w3.org/2000/svg">
<path d="M33.3358 24.7471C31.395 21.9882 24.6864 20.2588 21.944 18.4471C24.2645 16.1412 26.0366 12.2706 25.8256 8.23529C25.6147 3.70588 22.1549 0.0411765 17.556 0H17.4716C12.8727 0.0411765 9.37072 3.70588 9.15976 8.19412C8.9488 12.2706 10.7209 16.1 13.0414 18.4471C10.299 20.2588 3.59041 22.0294 1.64958 24.7471C-0.79756 28.2059 0.130665 30.1 0.383817 31.1294C0.383817 33.2706 8.06277 35 17.5138 35C26.9648 35 34.0953 33.3941 34.6016 31.3353C34.5594 31.3353 36.1205 28.6588 33.3358 24.7471Z" fill="#4085FF"/>
</svg>
