<svg width="60" height="29" viewBox="0 0 60 29" fill="none" xmlns="http://www.w3.org/2000/svg">
<path d="M45.4103 7.44678L45.7563 7.66631L45.7778 7.64468L46.5344 6.88495L46.1044 6.8482C46.4551 5.89831 46.8001 5.0106 47.1255 4.27021C47.324 3.81846 47.5121 3.42872 47.6865 3.11665C47.8649 2.79742 48.0134 2.58837 48.1261 2.47525C50.7314 -0.140383 54.938 -0.140383 57.5433 2.47525C60.1496 5.09199 60.1496 9.31867 57.5433 11.9354C56.771 12.7107 55.371 13.327 53.628 13.9833L52.3851 14.4512L53.628 14.9191C55.371 15.5754 56.771 16.1917 57.5433 16.967C60.1496 19.5837 60.1496 23.8104 57.5433 26.4272C54.938 29.0428 50.7314 29.0428 48.1261 26.4272C48.0134 26.314 47.8649 26.105 47.6865 25.7858C47.5121 25.4737 47.324 25.084 47.1255 24.6322C46.7285 23.7288 46.3022 22.6061 45.8721 21.4187L45.7657 21.1249L45.4551 21.0918C35.2938 20.0065 24.9174 20.0066 14.5421 21.0916L14.2306 21.1242L14.124 21.4187C13.6939 22.6061 13.2676 23.7288 12.8706 24.6322C12.6721 25.084 12.484 25.4737 12.3096 25.7858C12.1311 26.105 11.9827 26.314 11.87 26.4272C9.26471 29.0428 5.05814 29.0428 2.45284 26.4272C-0.15355 23.8104 -0.15355 19.5837 2.45284 16.967C3.22507 16.1917 4.62507 15.5754 6.36811 14.9191L7.61101 14.4512L6.36811 13.9833C4.62557 13.3272 3.22587 12.7111 2.4535 11.9361C-0.132461 9.31896 -0.132227 5.06907 2.4542 2.45225C5.03494 -0.15882 9.28402 -0.14334 11.8922 2.45428C12.0048 2.56755 12.153 2.77641 12.3311 3.09502C12.5056 3.40709 12.6937 3.79683 12.8922 4.24858C13.2892 5.15198 13.7154 6.27471 14.1455 7.46212L14.2759 7.82202L14.6573 7.79011C24.971 6.92722 35.2839 6.9273 45.381 7.79003L45.4103 7.44678Z" fill="#FFC46C" stroke="#B4771D"/>
</svg>
