<svg width="33" height="33" viewBox="0 0 33 33" fill="none" xmlns="http://www.w3.org/2000/svg">
<path d="M13.5 0C6.075 0 0 6.075 0 13.5C0 20.925 6.075 27 13.5 27C20.925 27 27 20.925 27 13.5C27 6.075 20.9769 0 13.5 0ZM13.5 5.50385C17.9654 5.50385 21.4962 9.08654 21.4962 13.5C21.4962 17.9135 17.9135 21.4962 13.5 21.4962C9.08654 21.4962 5.50385 17.9135 5.50385 13.5C5.50385 9.08654 9.08654 5.50385 13.5 5.50385Z" fill="#4085FF"/>
<path d="M20.8641 19C20.1181 19 19.3721 19.2981 18.8393 19.7453C17.7202 20.7888 17.7202 22.4286 18.8393 23.4721L28.1643 32.2174C29.2833 33.2609 31.0417 33.2609 32.1607 32.2174C33.2798 31.1739 33.2798 29.5342 32.1607 28.4907L22.7824 19.7453C22.2496 19.2484 21.5568 19 20.8108 19H20.8641Z" fill="#4085FF"/>
</svg>
