<svg width="36" height="36" viewBox="0 0 36 36" fill="none" xmlns="http://www.w3.org/2000/svg">
<path d="M19.0149 0.424319C18.4536 -0.14144 17.5389 -0.14144 16.9823 0.424319L0.319651 17.2341C-0.241741 17.7998 -0.043318 18.2601 0.755213 18.2601H2.70556C3.50409 18.2601 4.23003 18.9026 4.31714 19.6889L5.98196 34.5712C6.06907 35.3575 6.79501 36 7.59354 36H27.6391C28.4376 36 29.1635 35.3575 29.2555 34.5712L30.9687 19.6889C31.0607 18.9026 31.7866 18.2601 32.5851 18.2601H35.2469C36.0454 18.2601 36.239 17.7998 35.6825 17.2341L19.0149 0.424319ZM24.5563 31.8191C24.5563 32.6102 23.9029 33.2575 23.1044 33.2575H12.7283C11.9298 33.2575 11.2765 32.6102 11.2765 31.8191V27.715C11.2765 26.9239 11.5523 25.6917 11.8959 24.9773C11.8959 24.9773 14.2528 20.0149 17.9164 20.0149C21.5799 20.0149 23.9368 24.9773 23.9368 24.9773C24.2756 25.6917 24.5563 26.9239 24.5563 27.715V31.8191Z" fill="black"/>
</svg>
