<svg width="30" height="26" viewBox="0 0 30 26" fill="none" xmlns="http://www.w3.org/2000/svg">
<path d="M27.971 17.5458H26.7124C27.8516 17.5672 28.763 18.4875 28.7413 19.6112C28.7196 20.7027 27.8299 21.591 26.7124 21.6124H25.725C26.8643 21.6231 27.7757 22.5434 27.754 23.6671C27.7431 24.7693 26.8426 25.6576 25.725 25.6683H14.6582C12.8354 25.786 12.0217 23.7206 10.188 23.8383H9.40684V9.46614C14.1265 9.43404 17.5008 4.46853 17.4683 0.0701974C19.6383 -0.336461 21.7214 1.06544 22.1446 3.19504C22.2205 3.6124 22.2422 4.02976 22.1771 4.45782L21.4177 9.43404H26.7124C27.8516 9.44474 28.763 10.3651 28.7413 11.4887C28.7305 12.591 27.8299 13.4792 26.7124 13.4899H27.971C29.1102 13.5113 30.0108 14.4316 29.9999 15.5446C29.9782 16.6362 29.0885 17.5244 27.971 17.5458ZM1.36708 26H5.86978C6.62927 26 7.23687 25.39 7.23687 24.6516V8.62072C7.23687 7.87161 6.61842 7.27233 5.86978 7.27233H1.36708C0.607593 7.27233 0 7.88231 0 8.62072V24.6516C0 25.4007 0.618443 26 1.36708 26Z" fill="white"/>
</svg>
