<svg width="230" height="27" viewBox="0 0 230 27" fill="none" xmlns="http://www.w3.org/2000/svg">
<path d="M26.1464 26.1157H18.4941V6.4422H25.7644C34.3921 6.4422 38.391 10.5945 38.391 16.279C38.391 21.9634 34.1117 26.1157 26.1464 26.1157ZM25.7604 11.2546H25.098V21.2992H26.1424C28.9587 21.2992 31.5677 19.763 31.5677 16.2749C31.5677 13.2758 30.0031 11.2506 25.7604 11.2506V11.2546Z" fill="black"/>
<path d="M39.5703 16.5928C39.5703 11.0468 43.1181 5.8147 50.3559 5.8147C58.1138 5.8147 61.1414 11.1161 61.1414 15.9286C61.1414 21.4745 57.5937 26.7392 50.3559 26.7392C42.5979 26.7392 39.5703 21.4011 39.5703 16.5887V16.5928ZM54.2491 15.9978C54.2491 13.9033 53.1722 11.2913 50.3518 11.2913C47.5315 11.2913 46.422 13.94 46.422 16.5235C46.422 18.618 47.499 21.2667 50.3518 21.2667C53.2047 21.2667 54.2491 18.5813 54.2491 15.9978Z" fill="black"/>
<path d="M73.2769 11.0468C71.0499 11.0468 68.9976 12.7909 68.9976 16.1731C68.9976 20.3946 71.6432 21.7882 74.1791 21.7882C75.0853 21.7882 75.955 21.613 76.7515 21.2993V19.7304H72.1268V15.0199H83.083V23.8787C80.6488 25.8998 77.4139 26.7392 73.411 26.7392C66.734 26.7392 62.3125 22.7621 62.3125 16.4868C62.3125 9.0909 67.4249 5.8147 73.2687 5.8147C78.0357 5.8147 81.6526 8.01106 83.3228 11.4666L77.93 14.2905C76.8856 12.1267 75.0447 11.0468 73.2687 11.0468H73.2769Z" fill="black"/>
<path d="M95.3999 11.0468C93.1729 11.0468 91.1206 12.7909 91.1206 16.1731C91.1206 20.3946 93.7622 21.7882 96.3021 21.7882C97.2084 21.7882 98.078 21.613 98.8746 21.2993V19.7304H94.2498V15.0199H105.206V23.8787C102.772 25.8998 99.537 26.7392 95.534 26.7392C88.8571 26.7392 84.4355 22.7621 84.4355 16.4868C84.4355 9.0909 89.5479 5.8147 95.3918 5.8147C100.159 5.8147 103.776 8.01106 105.446 11.4666L100.053 14.2905C99.0087 12.1267 97.1677 11.0468 95.3918 11.0468H95.3999Z" fill="black"/>
<path d="M110.986 20.7084C111.404 20.7084 111.611 20.5006 111.611 20.2194C111.611 20.0808 111.575 19.9382 111.473 19.7671L104.41 6.4422H111.611L116.065 15.1991L119.65 6.4422H126.607L120.381 20.1868C119.13 23.0107 117.979 24.2331 116.59 25.1052C115.232 25.9772 113.599 26.3969 110.851 26.3969H106.954V20.7124H110.99L110.986 20.7084Z" fill="black"/>
<path d="M222.157 14.5228L221.035 11.4503C223.413 10.5783 225.664 9.62066 227.732 8.60602L229.167 11.544C227.001 12.6076 224.64 13.61 222.157 14.5228Z" fill="black"/>
<path d="M221.64 20.7614L221.514 17.4933C224.358 17.3833 226.971 17.1347 229.495 16.7394L229.999 19.9708C227.349 20.3865 224.614 20.6432 221.64 20.7614Z" fill="black"/>
<path d="M7.8442 14.5228C5.36116 13.61 3.0041 12.6076 0.833984 11.544L2.26854 8.60602C4.33299 9.62066 6.58845 10.5783 8.96583 11.4503L7.8442 14.5228Z" fill="black"/>
<path d="M8.35942 20.7614C5.38466 20.6473 2.65372 20.3865 0 19.9708L0.503923 16.7394C3.0276 17.1347 5.63662 17.3833 8.4854 17.4933L8.35942 20.7614Z" fill="black"/>
<path d="M132.203 26.0994V6.38513H140.847C143.635 6.38513 145.866 6.6663 147.227 7.29383C148.934 8.06398 149.877 9.77544 149.877 11.4543C149.877 12.7827 149.284 14.1437 148.028 15.0891C150.885 15.9611 151.966 18.0271 151.966 20.1908C151.966 22.0082 151.092 23.789 149.804 24.6651C148.447 25.643 146.947 26.0994 142.03 26.0994H132.199H132.203ZM140.29 13.9359C141.371 13.9359 141.896 13.8666 142.241 13.7281C142.904 13.4836 143.042 13.0639 143.042 12.5749C143.042 11.9799 142.83 11.5602 142.31 11.3524C141.928 11.1772 141.367 11.1079 140.116 11.1079H138.754V13.94H140.286L140.29 13.9359ZM142.627 21.2422C143.672 21.2422 144.159 21.1729 144.509 21.0343C145.135 20.7898 145.277 20.3701 145.277 19.8811C145.277 19.2862 145.066 18.9032 144.578 18.6913C144.196 18.5161 143.672 18.4468 142.452 18.4468H138.758V21.3114L142.627 21.2422Z" fill="black"/>
<path d="M212.745 19.2659C212.745 19.2659 212.765 19.2414 212.781 19.2292C212.086 19.8608 207.994 22.1346 204.105 21.5926C203.121 21.4582 202.223 21.0344 201.415 20.4272C204.089 17.5626 205.255 14.6979 205.739 12.4404C206.507 8.85454 205.84 5.25234 203.963 2.79519C202.727 1.18153 201.053 0.199484 199.24 0.0283391C197.306 -0.155031 195.384 0.553999 193.681 2.08208C191.539 3.99728 189.975 8.4226 192.003 15.0932C192.539 16.8617 193.214 18.4061 193.978 19.7386C193.36 20.146 192.685 20.5495 191.95 20.9447C190.861 21.5315 189.552 21.7638 188.276 21.5967C186.614 21.3685 185.192 20.3213 184.037 18.9236C186.553 16.6824 188.65 13.9441 189.483 10.7045C190.235 7.78285 189.743 4.9019 188.134 2.79926C186.898 1.18561 185.224 0.203559 183.412 0.032414C181.481 -0.146881 179.555 0.558074 177.852 2.08616C175.711 4.00135 174.146 8.42668 176.174 15.0973C176.438 15.9652 176.735 16.7802 177.056 17.5381C177.076 17.6115 174.353 21.2789 164.267 21.2789C161.828 21.2789 160.048 20.3335 159.492 18.3775H173.26C173.26 10.0566 169.566 5.75763 163.117 5.75763C156.667 5.75763 152.762 10.5456 152.762 16.4175C152.762 22.9536 157.021 26.4254 163.462 26.727C172.715 27.163 179.795 22.2487 179.754 22.0979C182.168 25.0726 185.078 26.5273 187.557 26.8737C189.946 27.1874 192.393 26.7474 194.457 25.6349C195.494 25.0767 196.44 24.498 197.302 23.9072C199.297 25.6797 201.463 26.6047 203.365 26.8696C204.02 26.9593 204.674 27 205.32 27C210.554 27 215.309 24.2739 216.577 22.9373L212.733 19.2618L212.745 19.2659ZM163.019 10.7208C165.043 10.7208 165.912 12.2245 165.982 13.83H159.707C160.125 12.1511 161.068 10.7208 163.019 10.7208ZM181.258 13.5407C180.059 9.59209 180.628 6.73967 181.396 6.05509C181.916 5.59056 182.436 5.32976 182.839 5.32976C182.867 5.32976 182.895 5.32976 182.92 5.32976C183.334 5.37051 183.696 5.73318 183.924 6.03472C184.541 6.84155 184.692 8.02734 184.346 9.36797C184.102 10.3133 183.408 12.0289 181.432 14.0704C181.372 13.8911 181.315 13.7118 181.262 13.5366L181.258 13.5407ZM200.545 11.328C200.256 12.6809 199.578 14.3679 198.107 16.1445C197.68 15.2766 197.339 14.3882 197.083 13.5447C195.884 9.59617 196.457 6.74375 197.221 6.05917C197.741 5.59463 198.261 5.33384 198.663 5.33384C198.692 5.33384 198.72 5.33384 198.745 5.33384C199.159 5.37459 199.521 5.73725 199.748 6.03879C200.443 6.94749 201.069 8.87899 200.545 11.328Z" fill="black"/>
</svg>
