<svg width="34" height="38" viewBox="0 0 34 38" fill="none" xmlns="http://www.w3.org/2000/svg">
<path fill-rule="evenodd" clip-rule="evenodd" d="M17.9405 0.470761C20.3711 1.47713 21.0831 5.33089 19.5344 9.07137C17.9857 12.8119 14.7578 15.0344 12.3272 14.028C9.89664 13.0217 9.18466 9.16789 10.7334 5.42741C12.2821 1.68693 15.5099 -0.535603 17.9405 0.470761ZM16.7415 19.2027C21.8948 21.3489 21.1146 25.0461 23.0301 32.7202C23.4269 37.8895 19.5003 39.4176 15.152 36.2709C13.4277 34.2481 12.0519 33.211 10.4889 32.6262C7.77506 31.6147 6.36895 33.1081 3.30811 31.6912C0.935719 30.6341 0.274023 29.1759 0.701075 27.5452C1.15719 25.8143 2.20943 25.0408 3.53903 24.0019C8.69073 19.9644 13.4901 17.0774 16.7437 19.1974L16.7415 19.2027ZM5.27236 7.00579C3.15643 6.97738 1.39312 9.58812 1.33579 12.8429C1.27847 16.0976 2.94937 18.759 5.06311 18.7928C7.17905 18.8212 8.94235 16.2104 8.99968 12.9557C9.05701 9.70093 7.3861 7.03952 5.27236 7.00579ZM32.5226 18.2885C34.0393 19.7641 33.441 22.8572 31.1808 25.1999C28.9206 27.5426 25.8574 28.2439 24.3385 26.7735C22.8217 25.2979 23.42 22.2048 25.6803 19.8621C27.9405 17.5194 31.0037 16.8181 32.5226 18.2885ZM28.1421 4.58242C30.5727 5.58879 31.2846 9.44255 29.7359 13.183C28.1872 16.9235 24.9594 19.146 22.5288 18.1397C20.0982 17.1333 19.3862 13.2796 20.9349 9.53907C22.4836 5.79859 25.7062 3.57387 28.1421 4.58242Z" fill="#4085FF"/>
</svg>
