<svg width="96" height="168" viewBox="0 0 96 168" fill="none" xmlns="http://www.w3.org/2000/svg">
<path d="M23.2399 43.0868C24.3672 52.9753 27.5627 56.4151 29.2253 65.092C30.1904 70.1501 30.0525 73.9315 29.8903 78.4285C29.3469 93.2938 23.6535 103.499 20.5798 111.103C13.5644 128.465 4.86423 142.114 17.5 160.5C18.1164 161.395 18.2495 164.097 35.5 167C39.1577 167.618 45.5503 167.707 50.5 167C54 166.5 57.7658 166.528 59.1521 165.5C60.5 164.5 67 157 66.4675 155.105C66 152 65.2186 143.33 63.1423 123.764C61.65 109.68 59.3143 103.67 58.4871 88.4227C58.3654 86.1864 56.0053 82.161 59.1521 74.4194C60.8228 70.3046 63.1423 67.0843 63.1423 67.0843C65.2834 64.108 67.7976 61.0829 70.4578 57.082C73.4748 52.5443 73.0044 51.1375 75.7781 46.4128C77.4326 43.5991 81.3093 39.8746 89.0789 32.4095C89.9224 31.5963 92.5501 29.0835 93.7342 25.0744C94.1154 23.7814 94.7561 21.6183 93.7342 20.4066C92.3068 18.7152 88.4625 19.8374 86.4187 20.4066C77.3028 22.9357 70.839 24.7328 65.1375 24.4076C57.2462 23.9603 55.8999 19.7398 45.8513 19.7398C43.8805 19.7398 41.8448 19.7398 39.2009 20.4066C32.664 22.0493 25.2837 27.0261 23.2399 34.4099C22.5424 36.939 22.7776 38.9801 23.2399 43.0786V43.0868Z" fill="black"/>
<path d="M13.2648 34.4177C11.659 35.3529 10.6452 36.8167 8.6095 39.7523C3.98666 46.4205 2.63225 51.6576 0.629019 59.757C-0.044132 62.4813 -0.360432 64.2622 0.629019 65.7585C2.0402 67.889 5.44651 68.442 7.94446 67.7589C11.7725 66.7099 13.5486 62.7415 14.5949 60.4239C16.3386 56.5449 16.7765 52.3081 17.255 47.7542C17.6686 43.7858 17.5227 42.3383 18.5851 41.7528C21.0101 40.4191 24.8543 46.3067 28.5607 45.0869C30.7424 44.3713 32.3644 41.3543 31.8859 39.0855C30.864 34.2469 19.8422 30.5875 13.2648 34.4177Z" fill="black"/>
<path d="M38.5371 24.4153C34.5793 20.39 34.5064 16.8444 34.5469 15.7466C34.5875 14.6732 34.8064 14.1283 38.5371 7.07786C41.2703 1.91404 41.7975 0.97886 43.1924 0.40962C45.1794 -0.395448 47.945 -0.0457723 49.8428 1.74327C51.0107 2.84922 51.2783 4.27232 51.838 7.07786C52.3327 9.57439 52.5841 10.8186 51.838 11.7456C50.8242 12.998 48.4965 13.0468 47.1827 13.0793C45.812 13.1118 45.6985 12.8597 45.1875 13.0793C42.9653 14.0226 42.1543 19.9183 44.5225 22.4148C45.3416 23.2768 46.2175 23.3907 46.5176 24.4153C46.8745 25.6188 46.1689 27.1802 45.1875 27.7494C43.6547 28.6358 40.7512 27.5136 38.5371 24.4153Z" fill="black"/>
<path d="M93.0622 15.0793C91.9511 14.9329 90.8644 16.1284 90.4021 17.0798C89.4532 19.0233 90.1344 21.9509 91.7322 22.4144C92.9325 22.7641 94.4572 21.6825 95.0574 20.4139C96.0549 18.2996 94.6762 15.2908 93.0622 15.0793Z" fill="black"/>
<path d="M27.7822 76.4195L25.8033 83.901C25.8033 83.901 33.5324 89.8617 43.5566 89.8048C53.589 89.7479 61.1396 85.747 61.1396 85.747V80.0302C61.1396 80.0302 55.6328 83.8034 45.4869 83.1122C35.3328 82.421 27.7822 76.4195 27.7822 76.4195Z" fill="#FF415C"/>
<path fill-rule="evenodd" clip-rule="evenodd" d="M42.5994 32.906C38.3334 32.906 34.8784 36.3702 34.8784 40.6476C34.8784 44.9251 38.3334 48.3974 42.5994 48.3974C46.8654 48.3974 50.3203 44.9332 50.3203 40.6476C50.3203 36.3621 46.8654 32.906 42.5994 32.906Z" fill="white"/>
<path fill-rule="evenodd" clip-rule="evenodd" d="M42.5986 35.898C39.979 35.898 37.8623 38.0205 37.8623 40.6471C37.8623 43.2737 39.9871 45.3962 42.5986 45.3962C45.2101 45.3962 47.335 43.2656 47.335 40.6471C47.335 38.0286 45.2101 35.898 42.5986 35.898Z" fill="black"/>
</svg>
